<svg width="72.75" height="16" viewBox="25 14 120 26" fill="white" xmlns="http://www.w3.org/2000/svg" overflow="visible">
  <path d="M76.728 21.209c0-.149.097-.247.243-.247h7.135c3.01 0 4.61 1.433 4.61 3.757 0 1.533-1.018 2.472-2.086 2.818 1.262.396 2.378 1.533 2.378 3.362 0 2.423-1.602 4.005-4.805 4.005h-7.232c-.146 0-.243-.1-.243-.248V21.21Zm2.573 2.027v3.411h4.514c1.504 0 2.232-.593 2.232-1.73 0-1.187-.776-1.73-2.232-1.73H79.3v.049Zm0 5.636v3.856h4.61c1.7 0 2.476-.692 2.476-1.928 0-1.285-.825-1.928-2.475-1.928H79.3Zm12.91-.89c0-4.202 3.107-7.218 7.184-7.218s7.183 3.016 7.183 7.218c0 4.153-3.106 7.218-7.183 7.218-4.126 0-7.183-3.016-7.183-7.218Zm11.746 0c0-2.67-1.796-4.796-4.514-4.796s-4.513 2.176-4.513 4.796c0 2.72 1.795 4.796 4.513 4.796 2.67.05 4.514-2.126 4.514-4.796Zm5.922 0c0-4.202 3.106-7.218 7.183-7.218s7.184 3.016 7.184 7.218c0 4.153-3.107 7.218-7.184 7.218-4.125 0-7.183-3.016-7.183-7.218Zm11.746 0c0-2.67-1.796-4.796-4.514-4.796s-4.514 2.176-4.514 4.796c0 2.72 1.796 4.796 4.514 4.796 2.669.05 4.514-2.126 4.514-4.796Zm14.512 3.214 4.077-10.037c.049-.099.097-.148.194-.148h3.349c.146 0 .243.099.243.247v13.497c0 .149-.097.248-.243.248h-2.087c-.145 0-.242-.1-.242-.248V23.532l-4.563 11.372c-.048.099-.097.148-.194.148h-1.456c-.097 0-.194-.05-.194-.148l-4.514-11.273v11.124c0 .149-.097.248-.243.248h-1.941c-.146 0-.243-.1-.243-.248V21.258c0-.148.097-.247.243-.247h3.494c.097 0 .194.05.194.148l4.126 10.037Z"/>
</svg>
