<svg width="75.75" height="14" viewBox="34 19 112 20" fill="white" xmlns="http://www.w3.org/2000/svg" overflow="visible">
  <path d="M56.605 23.584c-4.07 0-7.248 3.087-7.248 7.22 0 4.134 3.099 7.195 7.248 7.195s7.301-3.114 7.301-7.22c0-4.081-3.099-7.195-7.301-7.195zm.027 11.436c-2.317 0-4.015-1.799-4.015-4.215 0-2.443 1.67-4.24 3.988-4.24 2.344 0 4.04 1.825 4.04 4.24 0 2.416-1.696 4.215-4.013 4.215zm8.163-8.295h2.02v11.007h3.234v-13.88h-5.254v2.873zm-23.575-.162c1.698 0 3.045 1.047 3.557 2.604h3.422c-.62-3.328-3.368-5.583-6.951-5.583-4.069 0-7.248 3.087-7.248 7.221C34 34.94 37.099 38 41.248 38c3.502 0 6.304-2.255 6.924-5.611h-3.395c-.485 1.557-1.832 2.631-3.53 2.631-2.345 0-3.988-1.799-3.988-4.215.001-2.443 1.618-4.242 3.961-4.242zm85.004 2.9l-2.371-.349c-1.132-.16-1.94-.536-1.94-1.422 0-.967 1.051-1.45 2.479-1.45 1.562 0 2.56.671 2.775 1.772h3.126c-.351-2.792-2.507-4.43-5.82-4.43-3.422 0-5.685 1.746-5.685 4.215 0 2.362 1.482 3.732 4.472 4.161l2.371.349c1.159.16 1.806.618 1.806 1.476 0 1.101-1.132 1.557-2.694 1.557-1.914 0-2.992-.778-3.153-1.96h-3.179c.297 2.712 2.424 4.618 6.304 4.618 3.53 0 5.873-1.61 5.873-4.376 0-2.47-1.696-3.759-4.364-4.161zM68.432 18.134c-1.185 0-2.075.859-2.075 2.04 0 1.18.889 2.04 2.075 2.04 1.186 0 2.075-.86 2.075-2.04 0-1.181-.89-2.04-2.075-2.04zm47.446 10.47c0-3.006-1.832-5.02-5.711-5.02-3.664 0-5.712 1.853-6.117 4.699h3.207c.162-1.1 1.024-2.013 2.856-2.013 1.644 0 2.452.724 2.452 1.61 0 1.155-1.482 1.45-3.314 1.638-2.479.268-5.55 1.127-5.55 4.349 0 2.497 1.859 4.107 4.823 4.107 2.317 0 3.771-.967 4.499-2.497.108 1.369 1.132 2.255 2.56 2.255h1.886V34.86h-1.59v-6.256h-.001zm-3.179 3.49c0 1.853-1.616 3.222-3.584 3.222-1.213 0-2.236-.51-2.236-1.584 0-1.368 1.644-1.744 3.152-1.905 1.455-.134 2.263-.456 2.668-1.074v1.341zm-17.162-8.51c-1.806 0-3.315.752-4.392 2.013V18h-3.233v19.732h3.179v-1.826C92.169 37.222 93.705 38 95.537 38c3.88 0 6.817-3.06 6.817-7.195 0-4.134-2.992-7.221-6.817-7.221zm-.485 11.436c-2.317 0-4.015-1.799-4.015-4.215 0-2.415 1.724-4.24 4.041-4.24 2.345 0 3.988 1.798 3.988 4.24 0 2.416-1.697 4.215-4.014 4.215z"/>
</svg>
