<svg width="61.5" height="13" viewBox="38 14 104 22" fill="white" xmlns="http://www.w3.org/2000/svg" overflow="visible">
  <path d="M49.063 14.016C42.978 14.016 38 18.995 38 25.08s4.98 11.064 11.064 11.064c6.086 0 11.065-4.948 11.065-11.064a11.057 11.057 0 0 0-11.065-11.064Zm0 18.163c-3.78 0-6.822-3.104-6.822-7.099s3.042-7.1 6.822-7.1c3.78 0 6.823 3.105 6.823 7.1 0 3.996-3.042 7.1-6.823 7.1ZM71.313 20.163c-1.997 0-3.934.8-4.948 2.151V20.47H62.37v21.514h3.995v-7.776c1.014 1.26 2.89 1.937 4.948 1.937 4.303 0 7.684-3.381 7.684-7.991 0-4.61-3.381-7.99-7.684-7.99Zm-.676 12.509c-2.274 0-4.302-1.783-4.302-4.518s2.028-4.518 4.302-4.518c2.275 0 4.303 1.783 4.303 4.518s-2.028 4.518-4.303 4.518ZM88.403 20.163c-4.364 0-7.806 3.412-7.806 7.99 0 4.58 3.012 7.992 7.93 7.992 4.025 0 6.607-2.428 7.406-5.164H92.03c-.492 1.137-1.875 1.936-3.534 1.936-2.06 0-3.627-1.444-3.996-3.503h11.618v-1.568c0-4.18-2.92-7.683-7.715-7.683Zm-3.872 6.423c.43-1.936 2.028-3.196 3.965-3.196 2.059 0 3.626 1.352 3.81 3.196h-7.775ZM106.75 20.163c-1.783 0-3.658.8-4.518 2.12V20.47h-3.996v15.367h3.996V27.57c0-2.397 1.29-3.965 3.38-3.965 1.937 0 2.981 1.476 2.981 3.535v8.697h3.996v-9.343c0-3.81-2.336-6.33-5.839-6.33ZM122.824 14.325l-8.698 21.513h4.272l1.844-4.702h9.896l1.844 4.702h4.333l-8.636-21.513h-4.855Zm-1.199 13.246 3.565-9.005 3.534 9.005h-7.099ZM142.001 14.325h-4.057v21.513h4.057V14.325Z"/>
</svg>
