<svg width="52.5" height="13" viewBox="46 15 88 22" fill="white" xmlns="http://www.w3.org/2000/svg" overflow="visible">
  <path d="M75.0156 25.8772C73.4267 25.3786 71.5334 24.7369 71.5334 23.0979C71.5334 21.8439 72.9146 20.9896 74.2284 20.9896C75.5411 20.9896 76.8538 21.7718 77.0603 23.3839H80.6537C80.4031 19.1367 76.7548 17.6113 74.3653 17.6113C70.3858 17.6113 67.9401 20.2477 67.9401 23.3118C67.9401 27.5871 71.6984 28.4708 73.8532 29.2689C75.7196 29.9533 77.515 30.5522 77.515 32.2902C77.515 33.972 76.1608 34.9974 74.545 34.9974C72.5406 34.9974 71.1594 33.6444 71.0213 31.4066H67.3596C67.4292 36.821 71.85 38.3891 74.4069 38.3891C78.6211 38.3891 81.1071 35.6538 81.1071 32.091C81.0949 27.4453 76.701 26.4187 75.0156 25.8772ZM56.3351 17.6113C50.3939 17.6113 46 22.4574 46 27.8719C46 32.8891 49.8964 38.3891 56.3351 38.3891C62.8288 38.3891 66.6702 32.8036 66.6702 27.9574C66.6556 22.2863 62.1382 17.6113 56.3351 17.6113ZM56.3351 34.9693C52.3556 34.9693 49.6337 31.5202 49.6337 27.9868C49.6337 24.4949 52.3287 21.0323 56.3351 21.0323C60.3416 21.0323 63.0366 24.4802 63.0366 27.944C63.0219 31.6632 60.1619 34.9693 56.3351 34.9693ZM92.2171 34.9693C88.2388 34.9693 85.6966 31.5202 85.6966 27.9868C85.6966 24.4949 88.2107 21.0323 92.2171 21.0323C95.5342 21.0323 97.2197 23.3118 97.7721 24.7088H101.683C101.1 21.7877 97.7856 17.6113 92.2159 17.6113C86.2759 17.6113 82.0604 22.4574 82.0604 27.8719C82.0604 32.8891 85.7919 38.3891 92.2171 38.3891C97.8809 38.3891 101.087 34.3277 101.75 31.2636H97.7159C97.1488 32.6606 95.5342 34.9693 92.2171 34.9693ZM119.368 20.8612H119.299C117.918 18.7223 115.541 17.6113 112.874 17.6113C105.993 17.6113 102.718 23.1407 102.718 27.944C102.718 32.7461 105.994 38.3891 112.874 38.3891C115.526 38.3891 117.917 37.2769 119.299 35.1404H119.368V37.877H123.029V18.1528H119.368V20.8612ZM112.874 34.9693C108.48 34.9693 106.352 31.0497 106.352 27.9868C106.352 24.9227 108.493 21.0323 112.874 21.0323C116.536 21.0323 119.479 23.8104 119.479 27.9868C119.479 32.1619 116.536 34.9693 112.874 34.9693Z"/>
</svg>
