<svg width="67.5" height="14" viewBox="32 16 116 24" fill="white" xmlns="http://www.w3.org/2000/svg" overflow="visible">
  <g clipPath="url(#clip0_1018_1842)"><path fill="#fff" d="m58.477 39.5-13.238-23-13.238 23zm13.352-1.047 11.064-20.908h-4.785L70.476 32.73l-7.632-15.183h-4.785l11.063 20.907zm75.396-20.908v20.908h-3.961V17.545zM125.173 30.65q0-2.443 1.021-4.299a7.1 7.1 0 0 1 2.848-2.856q1.826-1.001 4.271-1.001 2.167 0 3.9.942 1.732.942 2.754 2.797t1.053 4.535v.913h-11.668q.123 1.944 1.145 3.063 1.052 1.09 2.816 1.09 1.115 0 2.043-.59a3.7 3.7 0 0 0 1.393-1.59l4.054.294q-.743 2.209-2.786 3.534-2.042 1.326-4.704 1.325-2.445 0-4.271-1a7.1 7.1 0 0 1-2.848-2.857q-1.021-1.855-1.021-4.3m11.761-1.472q-.216-1.914-1.207-2.797-.99-.913-2.414-.913-1.64 0-2.662.972-1.021.97-1.268 2.738zM118.49 26.38q.99.795 1.238 2.208l4.085-.206q-.217-1.797-1.269-3.121-1.052-1.326-2.723-2.032-1.64-.736-3.622-.736-2.445 0-4.271 1a7.1 7.1 0 0 0-2.847 2.857q-1.022 1.855-1.022 4.3t1.022 4.299a7.1 7.1 0 0 0 2.847 2.856q1.826 1.002 4.271 1.001 2.043 0 3.715-.736 1.67-.765 2.723-2.15 1.052-1.383 1.269-3.239l-4.116-.176q-.217 1.56-1.207 2.414-.991.825-2.384.825-1.918 0-2.971-1.325-1.052-1.326-1.052-3.77t1.052-3.769q1.053-1.325 2.971-1.325 1.331 0 2.291.825m-20.098-3.535h3.687l.106 3.004q.393-1.275 1.092-1.98 1.014-1.024 2.826-1.024h1.506v3.215h-1.536q-1.29 0-2.12.351a2.56 2.56 0 0 0-1.229 1.11q-.399.76-.399 1.93v9.002h-3.933zM81.388 26.35q-1.022 1.855-1.022 4.3t1.022 4.299a7.1 7.1 0 0 0 2.847 2.856q1.827 1.002 4.271 1.001 2.662 0 4.705-1.325 2.042-1.325 2.785-3.534l-4.054-.294a3.68 3.68 0 0 1-1.393 1.59q-.928.59-2.043.59-1.764 0-2.816-1.09-1.022-1.119-1.145-3.063h11.668v-.913q-.03-2.68-1.052-4.535t-2.755-2.797q-1.734-.942-3.9-.942-2.445 0-4.27 1a7.1 7.1 0 0 0-2.848 2.857m9.533.03q.99.883 1.206 2.797h-7.551q.248-1.766 1.269-2.738t2.661-.972q1.424 0 2.415.913"/></g>
  <defs><clipPath id="clip0_1018_1842"><path fill="#fff" d="M32 16.5h116v23H32z"/></clipPath></defs>
</svg>
